Coordinates
version=1
nRows=6
nColumns=36
inDegrees=yes

Units are S.I. units (second, meters, Newtons, ...)
If the header above contains a line with 'inDegrees', this indicates whether rotational values are in degrees (yes) or radians (no).

endheader
time	pelvis_tilt	pelvis_list	pelvis_rotation	pelvis_tx	pelvis_ty	pelvis_tz	hip_flexion_r	hip_adduction_r	hip_rotation_r	knee_angle_r	knee_angle_r_beta	ankle_angle_r	subtalar_angle_r	mtp_angle_r	hip_flexion_l	hip_adduction_l	hip_rotation_l	knee_angle_l	knee_angle_l_beta	ankle_angle_l	subtalar_angle_l	mtp_angle_l	lumbar_extension	lumbar_bending	lumbar_rotation	arm_flex_r	arm_add_r	arm_rot_r	elbow_flex_r	pro_sup_r	arm_flex_l	arm_add_l	arm_rot_l	elbow_flex_l	pro_sup_l
      0.40000000	     -5.91816474	      0.04000445	      2.52539771	      0.64374278	      0.97574909	     -0.18084420	     15.14969001	     -3.39630679	    -16.06511921	     22.13070292	      0.38625363	     -6.91376724	    -18.94185330	     -7.49997679	     12.21451051	     -2.21770237	     -9.95368626	     13.88071765	      0.24226423	     -0.77329570	     -7.32775815	     -7.49997679	    -11.21239012	      2.62455868	     -5.86632261	      2.68175564	    -15.46094816	     26.91279617	     26.74487355	     80.71630132	    -14.07397684	    -20.97325281	     18.64734800	     50.39238147	     79.77863563
      0.41666670	     -5.26370424	      0.20019491	      2.21274576	      0.64035410	      0.94245505	     -0.18712608	     17.99163270	     -4.30901082	    -14.32197242	     30.21699681	      0.52738608	      0.22809349	    -23.19796558	     -7.49998325	     14.26935101	     -2.36785079	    -10.01479693	     21.02270949	      0.36691550	      6.41252744	    -10.35813479	     -7.49998325	    -12.95688727	      2.58689242	     -5.41291863	      3.90941300	    -15.43929484	     25.33434621	     28.15668916	     77.31103798	    -12.19133230	    -20.62510638	     18.01834257	     50.04029380	     76.65854990
      0.43333330	     -4.87295263	      0.19191455	      2.65493323	      0.65101796	      0.92134540	     -0.18468959	     21.37004961	     -5.23089605	    -12.98129121	     39.83097200	      0.69518161	      8.76024704	    -24.77232803	     -7.49998650	     18.08490942	     -3.28774203	    -10.28248186	     31.37994161	      0.54768330	     14.75895745	    -11.65038782	     -7.49998650	    -13.73831348	      2.43536557	     -5.27179367	      4.94003282	    -14.34612763	     22.70991824	     27.31473440	     75.78459652	     -9.74515919	    -20.08670306	     16.68172513	     46.60057118	     75.32361096
      0.45000000	     -5.07136015	     -0.14389273	      2.75751067	      0.64492149	      0.89791363	     -0.19095154	     26.04152316	     -6.20220606	    -12.23360931	     49.78167061	      0.86885406	     16.69516281	    -24.88040808	     -7.49999078	     23.76062659	     -4.81542763	    -10.72670436	     42.95947621	      0.74978430	     22.22775918	    -12.01842361	     -7.49999078	    -14.81260223	      2.90689570	     -3.77333942	      4.83718982	    -13.63953300	     13.71475428	     29.29256900	     80.12072294	     -5.44942711	    -19.36125398	     17.73688703	     43.70352485	     79.41145661
      0.46666670	     -4.63054873	     -0.52939885	      3.09582137	      0.65341702	      0.88495703	     -0.18797087	     29.04525471	     -7.16886025	    -12.38175658	     58.42427254	      1.01969592	     23.84122265	    -22.46501542	     -7.49999095	     27.75379076	     -6.50123215	    -10.70316775	     52.94925981	      0.92413892	     29.03775992	    -10.45193263	     -7.49999095	    -16.34883725	      3.18820959	     -3.42500486	      6.99077816	    -12.91202910	     12.77965854	     28.65986943	     80.47113406	     -2.86823157	    -18.21468469	     15.91290058	     40.57949758	     79.27955726
      0.48333330	     -4.24328261	     -0.70137926	      3.31002654	      0.64913193	      0.88102151	     -0.19109191	     30.90528825	     -8.21493726	    -13.07414849	     63.82070934	      1.11388151	     29.01348636	    -20.02356245	     -7.49999144	     31.01752824	     -7.67483476	    -10.61831978	     60.23509008	      1.05130065	     33.35273393	     -9.07400307	     -7.49999144	    -18.29383166	      3.27275750	     -3.31239614	      8.90922649	    -11.99289102	     10.37119029	     27.92697950	     78.83215864	      0.84943579	    -16.36535346	     14.00789601	     38.18777943	     77.42044680
